HIERARCHY
ROOT Hips
{
	OFFSET 0.000000 100.481300 0.000000
	CHANNELS 6 Xposition Yposition Zposition Xrotation Yrotation Zrotation
	JOINT Spine
	{
		OFFSET -0.279200 12.230698 -2.892100
		CHANNELS 3 Xrotation Yrotation Zrotation
		JOINT Spine1
		{
			OFFSET -0.325700 14.269203 -3.374200
			CHANNELS 3 Xrotation Yrotation Zrotation
			JOINT Spine2
			{
				OFFSET -0.372300 16.307602 -0.352600
				CHANNELS 3 Xrotation Yrotation Zrotation
				JOINT Neck
				{
					OFFSET -0.418800 17.814194 8.416900
					CHANNELS 3 Xrotation Yrotation Zrotation
					JOINT Head
					{
						OFFSET 0.000000 7.031097 3.806800
						CHANNELS 3 Xrotation Yrotation Zrotation
						JOINT HeadTop_End
						{
							OFFSET 0.000000 24.646606 12.978600
							CHANNELS 3 Xrotation Yrotation Zrotation
							End Site
							{
								OFFSET 0.000000 27.854965 0.000000
							}
						}
					}
				}
				JOINT LeftShoulder
				{
					OFFSET 16.952999 14.495407 -7.737500
					CHANNELS 3 Xrotation Yrotation Zrotation
					JOINT LeftArm
					{
						OFFSET 9.308998 -2.777710 0.208600
						CHANNELS 3 Xrotation Yrotation Zrotation
						JOINT LeftForeArm
						{
							OFFSET 29.972298 0.000000 0.000000
							CHANNELS 3 Xrotation Yrotation Zrotation
							JOINT LeftHand
							{
								OFFSET 26.026505 0.000000 0.000000
								CHANNELS 3 Xrotation Yrotation Zrotation
								JOINT LeftHandThumb1
								{
									OFFSET 12.240501 -7.147949 9.207150
									CHANNELS 3 Xrotation Yrotation Zrotation
									JOINT LeftHandThumb2
									{
										OFFSET 4.138618 -2.389435 2.389433
										CHANNELS 3 Xrotation Yrotation Zrotation
										JOINT LeftHandThumb3
										{
											OFFSET 2.726913 -1.574387 1.574386
											CHANNELS 3 Xrotation Yrotation Zrotation
											JOINT LeftHandThumb4
											{
												OFFSET 3.941010 -2.275345 2.275342
												CHANNELS 3 Xrotation Yrotation Zrotation
												End Site
												{
													OFFSET -0.005798 5.087799 0.009903
												}
											}
										}
									}
								}
								JOINT LeftHandIndex1
								{
									OFFSET 24.424698 -1.985611 5.953459
									CHANNELS 3 Xrotation Yrotation Zrotation
									JOINT LeftHandIndex2
									{
										OFFSET 6.426697 0.000000 0.000000
										CHANNELS 3 Xrotation Yrotation Zrotation
										JOINT LeftHandIndex3
										{
											OFFSET 5.337898 0.000000 0.000000
											CHANNELS 3 Xrotation Yrotation Zrotation
											JOINT LeftHandIndex4
											{
												OFFSET 4.409401 0.000000 0.000000
												CHANNELS 3 Xrotation Yrotation Zrotation
												End Site
												{
													OFFSET 0.000000 4.409363 0.014373
												}
											}
										}
									}
								}
								JOINT LeftHandMiddle1
								{
									OFFSET 23.810104 0.000000 0.000000
									CHANNELS 3 Xrotation Yrotation Zrotation
									JOINT LeftHandMiddle2
									{
										OFFSET 7.176498 0.000000 0.000000
										CHANNELS 3 Xrotation Yrotation Zrotation
										JOINT LeftHandMiddle3
										{
											OFFSET 6.774902 0.000000 0.000000
											CHANNELS 3 Xrotation Yrotation Zrotation
											JOINT LeftHandMiddle4
											{
												OFFSET 5.403328 0.000000 0.000000
												CHANNELS 3 Xrotation Yrotation Zrotation
												End Site
												{
													OFFSET -0.027702 5.403244 0.017414
												}
											}
										}
									}
								}
								JOINT LeftHandRing1
								{
									OFFSET 22.908401 -0.839279 -6.020567
									CHANNELS 3 Xrotation Yrotation Zrotation
									JOINT LeftHandRing2
									{
										OFFSET 6.337502 0.000000 0.000000
										CHANNELS 3 Xrotation Yrotation Zrotation
										JOINT LeftHandRing3
										{
											OFFSET 5.779297 0.000000 0.000000
											CHANNELS 3 Xrotation Yrotation Zrotation
											JOINT LeftHandRing4
											{
												OFFSET 4.965698 0.000000 0.000000
												CHANNELS 3 Xrotation Yrotation Zrotation
												End Site
												{
													OFFSET 0.000000 4.965668 0.016186
												}
											}
										}
									}
								}
								JOINT LeftHandPinky1
								{
									OFFSET 20.037003 -1.530319 -10.950146
									CHANNELS 3 Xrotation Yrotation Zrotation
									JOINT LeftHandPinky2
									{
										OFFSET 5.254700 0.000000 0.000000
										CHANNELS 3 Xrotation Yrotation Zrotation
										JOINT LeftHandPinky3
										{
											OFFSET 4.810204 0.000000 0.000000
											CHANNELS 3 Xrotation Yrotation Zrotation
											JOINT LeftHandPinky4
											{
												OFFSET 3.647202 0.000000 0.000000
												CHANNELS 3 Xrotation Yrotation Zrotation
												End Site
												{
													OFFSET 0.000000 3.647186 0.011889
												}
											}
										}
									}
								}
							}
						}
					}
				}
				JOINT RightShoulder
				{
					OFFSET -15.141001 14.495407 -7.737500
					CHANNELS 3 Xrotation Yrotation Zrotation
					JOINT RightArm
					{
						OFFSET -9.308998 -2.777710 0.208500
						CHANNELS 3 Xrotation Yrotation Zrotation
						JOINT RightForeArm
						{
							OFFSET -29.972300 0.000000 0.000000
							CHANNELS 3 Xrotation Yrotation Zrotation
							JOINT RightHand
							{
								OFFSET -26.026505 0.000000 0.000000
								CHANNELS 3 Xrotation Yrotation Zrotation
								JOINT RightHandThumb1
								{
									OFFSET -12.240601 -7.148026 9.207092
									CHANNELS 3 Xrotation Yrotation Zrotation
									JOINT RightHandThumb2
									{
										OFFSET -4.138618 -2.389435 2.389433
										CHANNELS 3 Xrotation Yrotation Zrotation
										JOINT RightHandThumb3
										{
											OFFSET -2.726974 -1.574417 1.574421
											CHANNELS 3 Xrotation Yrotation Zrotation
											JOINT RightHandThumb4
											{
												OFFSET -3.941010 -2.275345 2.275343
												CHANNELS 3 Xrotation Yrotation Zrotation
												End Site
												{
													OFFSET 0.005814 5.087799 0.009927
												}
											}
										}
									}
								}
								JOINT RightHandIndex1
								{
									OFFSET -24.424698 -1.985657 5.953444
									CHANNELS 3 Xrotation Yrotation Zrotation
									JOINT RightHandIndex2
									{
										OFFSET -6.426697 0.000000 0.000000
										CHANNELS 3 Xrotation Yrotation Zrotation
										JOINT RightHandIndex3
										{
											OFFSET -5.337898 0.000000 0.000000
											CHANNELS 3 Xrotation Yrotation Zrotation
											JOINT RightHandIndex4
											{
												OFFSET -4.409401 0.000000 0.000000
												CHANNELS 3 Xrotation Yrotation Zrotation
												End Site
												{
													OFFSET 0.000000 4.409363 0.014408
												}
											}
										}
									}
								}
								JOINT RightHandMiddle1
								{
									OFFSET -23.810097 0.000000 0.000000
									CHANNELS 3 Xrotation Yrotation Zrotation
									JOINT RightHandMiddle2
									{
										OFFSET -7.176498 0.000000 0.000000
										CHANNELS 3 Xrotation Yrotation Zrotation
										JOINT RightHandMiddle3
										{
											OFFSET -6.774902 0.000000 0.000000
											CHANNELS 3 Xrotation Yrotation Zrotation
											JOINT RightHandMiddle4
											{
												OFFSET -5.403328 0.000000 0.000000
												CHANNELS 3 Xrotation Yrotation Zrotation
												End Site
												{
													OFFSET 0.027702 5.403244 0.017457
												}
											}
										}
									}
								}
								JOINT RightHandRing1
								{
									OFFSET -22.908302 -0.839325 -6.020576
									CHANNELS 3 Xrotation Yrotation Zrotation
									JOINT RightHandRing2
									{
										OFFSET -6.337502 0.000000 0.000000
										CHANNELS 3 Xrotation Yrotation Zrotation
										JOINT RightHandRing3
										{
											OFFSET -5.779297 0.000000 0.000000
											CHANNELS 3 Xrotation Yrotation Zrotation
											JOINT RightHandRing4
											{
												OFFSET -4.965698 0.000000 0.000000
												CHANNELS 3 Xrotation Yrotation Zrotation
												End Site
												{
													OFFSET 0.000000 4.965668 0.016226
												}
											}
										}
									}
								}
								JOINT RightHandPinky1
								{
									OFFSET -20.037003 -1.530334 -10.950259
									CHANNELS 3 Xrotation Yrotation Zrotation
									JOINT RightHandPinky2
									{
										OFFSET -5.254700 0.000000 0.000000
										CHANNELS 3 Xrotation Yrotation Zrotation
										JOINT RightHandPinky3
										{
											OFFSET -4.810204 0.000000 0.000000
											CHANNELS 3 Xrotation Yrotation Zrotation
											JOINT RightHandPinky4
											{
												OFFSET -3.647202 0.000000 0.000000
												CHANNELS 3 Xrotation Yrotation Zrotation
												End Site
												{
													OFFSET 0.000000 3.647186 0.011917
												}
											}
										}
									}
								}
							}
						}
					}
				}
			}
		}
	}
	JOINT LeftUpLeg
	{
		OFFSET 15.427100 -6.655098 0.678600
		CHANNELS 3 Xrotation Yrotation Zrotation
		JOINT LeftLeg
		{
			OFFSET 4.081073 -39.591068 13.024000
			CHANNELS 3 Xrotation Yrotation Zrotation
			JOINT LeftFoot
			{
				OFFSET -4.081074 -37.707932 -15.979700
				CHANNELS 3 Xrotation Yrotation Zrotation
				JOINT LeftToeBase
				{
					OFFSET 5.346399 -15.068900 20.645000
					CHANNELS 3 Xrotation Yrotation Zrotation
					JOINT LeftToe_End
					{
						OFFSET 2.754700 0.931300 11.300900
						CHANNELS 3 Xrotation Yrotation Zrotation
						End Site
						{
							OFFSET 0.000000 11.669021 0.000000
						}
					}
				}
			}
		}
	}
	JOINT RightUpLeg
	{
		OFFSET -15.569500 -6.655098 0.678600
		CHANNELS 3 Xrotation Yrotation Zrotation
		JOINT RightLeg
		{
			OFFSET -4.081825 -39.591045 13.023800
			CHANNELS 3 Xrotation Yrotation Zrotation
			JOINT RightFoot
			{
				OFFSET 4.081824 -37.707954 -15.979600
				CHANNELS 3 Xrotation Yrotation Zrotation
				JOINT RightToeBase
				{
					OFFSET -5.346400 -15.068900 20.645000
					CHANNELS 3 Xrotation Yrotation Zrotation
					JOINT RightToe_End
					{
						OFFSET -2.754700 0.931300 11.300900
						CHANNELS 3 Xrotation Yrotation Zrotation
						End Site
						{
							OFFSET 0.000000 11.669021 0.000000
						}
					}
				}
			}
		}
	}
}
MOTION
Frames: 4
Frame Time: 0.033333
1.144272 21.671875 22.833883 -13.089713 -15.563617 21.335660 22.965463 -13.585785 -2.851096 13.788870 -9.897107 -2.083086 13.991637 -9.819100 -1.426141 -0.359991 8.382686 -1.112598 -24.294271 19.000225 7.929258 0.000000 0.000000 0.000001 1.269547 -8.013553 1.941106 -65.019706 -14.879123 -25.584879 -0.000052 -79.112012 -0.000042 33.131629 -5.196746 -7.076363 -1.540035 3.690183 6.142352 3.939047 7.948715 0.746814 -0.579462 1.574999 2.538717 -0.000000 0.000003 -0.000001 0.000001 -0.000007 0.000006 -0.000000 0.000003 -0.000032 -0.000000 -0.000008 -0.000014 0.000001 0.000000 -0.000000 -0.000001 -0.001930 0.015987 -0.000001 0.001933 -0.016015 -0.000002 -0.000000 -0.000015 -0.000000 -0.000001 -0.000000 0.000001 -0.000007 0.000007 -0.000000 0.000003 -0.000033 -0.000002 -0.000005 -0.000014 -0.000001 0.000001 0.000000 -0.018090 4.054254 0.511071 -0.018089 -4.054253 -0.511099 -0.000000 -0.000006 -0.000016 -0.000001 -0.000002 0.000000 4.712430 12.799153 -6.007591 -9.054419 -10.236858 61.147897 0.000057 72.320386 -0.000069 16.879482 -34.313282 32.340587 -12.206264 -9.558559 -15.463941 31.664129 -27.478053 -19.479887 13.173542 -7.189319 -14.110623 0.000002 0.000001 -0.000000 1.327332 4.091110 -35.937843 0.000001 -0.000002 0.000012 -0.000001 -0.000002 0.000002 -0.000000 0.000000 0.000000 1.327332 4.091110 -35.937843 0.000000 -0.000002 0.000015 -0.000000 -0.000001 0.000011 0.000000 -0.000000 -0.000001 1.327334 4.091109 -35.937833 -0.000001 -0.000000 0.000001 -0.000001 -0.000001 0.000001 0.000000 0.000000 -0.000001 1.327333 4.091110 -35.937843 0.000000 -0.000002 0.000015 0.000000 -0.000001 0.000009 0.000000 0.000000 0.000000 -95.429757 -15.386946 30.719568 114.745908 -11.203430 -9.722222 6.990702 -1.456087 -15.220462 -0.000001 0.000000 0.000001 -0.000000 -0.000000 -0.000000 -114.517308 -21.618647 -1.261903 62.918630 -10.019557 1.600655 29.608723 5.165675 -28.422268 0.000013 -0.000015 -0.000003 0.000001 -0.000001 0.000001 
0.374916 24.403107 21.813990 -11.669864 -16.156220 22.136063 23.297775 -13.310713 -0.053992 13.443719 -10.053982 -0.684713 13.508095 -10.108771 0.171175 0.824252 7.954332 -3.377551 -21.401546 15.123174 4.275710 -0.000001 0.000000 0.000000 1.596364 -9.110348 0.926519 -62.541768 -8.773038 -25.202992 0.000009 -68.610794 0.000011 39.090183 -6.973723 -6.741711 -1.540038 3.690173 6.142355 3.939050 7.948727 0.746810 -0.579465 1.574984 2.538716 0.000002 -0.000002 -0.000000 -0.000004 -0.000001 0.000009 0.000005 0.000007 -0.000034 0.000003 -0.000002 -0.000018 0.000002 0.000001 -0.000001 0.000000 -0.001939 0.015995 -0.000002 0.001935 -0.016017 0.000004 -0.000011 -0.000015 -0.000000 -0.000002 0.000001 -0.000004 -0.000001 0.000009 0.000003 0.000006 -0.000033 0.000001 -0.000005 -0.000016 -0.000000 -0.000002 0.000001 -0.018089 4.054243 0.511077 -0.018086 -4.054251 -0.511099 0.000000 -0.000003 -0.000018 0.000002 0.000000 0.000001 4.663302 12.698839 -6.068411 -13.112293 -7.186711 58.182803 0.000061 67.262952 -0.000058 21.283580 -33.824634 34.173998 -12.811991 -10.233232 -15.670617 31.288284 -26.035525 -20.518431 12.967059 -6.286678 -14.660796 -0.000002 0.000003 0.000000 1.268406 4.008772 -35.103515 0.000003 -0.000001 0.000019 -0.000001 -0.000000 -0.000002 0.000000 0.000001 -0.000000 1.268406 4.008772 -35.103511 0.000003 -0.000001 0.000020 -0.000001 -0.000000 0.000003 -0.000000 -0.000000 0.000001 1.268408 4.008771 -35.103501 0.000001 -0.000003 0.000009 -0.000001 -0.000001 0.000000 -0.000000 0.000000 0.000002 1.268406 4.008772 -35.103511 0.000003 -0.000001 0.000019 -0.000001 -0.000001 0.000002 -0.000000 0.000001 0.000002 -91.015686 -10.091575 28.172261 111.353243 -8.341188 -7.938702 2.883294 -0.613257 -16.799492 -0.000006 -0.000002 -0.000001 -0.000000 -0.000000 -0.000000 -114.543973 -22.994617 -1.562851 67.131682 -12.897293 -0.096282 21.554901 6.833469 -30.359132 -0.000003 0.000000 -0.000012 -0.000000 -0.000003 0.000002 
-0.375458 27.718834 20.326447 -8.660534 -16.739771 23.418741 24.023602 -13.405605 2.454685 13.401662 -10.362862 0.724773 13.370577 -10.433399 1.783710 1.413067 8.065980 -5.410156 -19.426185 14.770684 -0.449770 -0.000001 0.000001 -0.000003 1.768999 -8.743832 -0.307208 -62.861585 -4.185014 -23.100828 0.000006 -57.693884 0.000008 37.943839 -7.716029 -2.886264 -1.540034 3.690169 6.142355 3.939047 7.948732 0.746805 -0.579469 1.574985 2.538718 0.000000 0.000000 -0.000001 -0.000001 0.000000 0.000008 0.000004 0.000002 -0.000033 0.000000 0.000005 -0.000021 -0.000002 0.000001 0.000000 -0.000003 -0.001949 0.015995 -0.000000 0.001942 -0.016018 0.000007 0.000003 -0.000017 -0.000002 -0.000001 0.000001 -0.000001 0.000000 0.000007 0.000000 0.000006 -0.000032 0.000001 0.000012 -0.000023 -0.000000 -0.000000 0.000000 -0.018090 4.054234 0.511081 -0.018096 -4.054238 -0.511104 0.000003 0.000005 -0.000018 0.000001 0.000001 -0.000001 4.795887 12.423396 -5.056630 -19.545621 -2.151672 54.342874 0.000001 61.700609 -0.000014 24.313356 -31.143801 35.174340 -13.422878 -10.959505 -15.849104 30.794413 -24.226582 -21.526745 12.665362 -5.206369 -15.186606 0.000001 0.000001 0.000001 1.184277 3.886612 -33.881522 0.000001 -0.000002 0.000012 -0.000002 -0.000001 0.000002 -0.000000 -0.000001 -0.000002 1.184277 3.886612 -33.881522 0.000001 -0.000002 0.000011 -0.000002 -0.000002 -0.000014 0.000000 0.000000 -0.000002 1.184277 3.886612 -33.881519 0.000002 -0.000002 0.000016 -0.000001 -0.000001 -0.000002 0.000000 -0.000000 -0.000002 1.184277 3.886612 -33.881522 0.000001 -0.000002 0.000011 -0.000001 -0.000001 -0.000000 0.000000 0.000000 -0.000001 -88.738070 -4.203026 26.240936 106.875665 -5.402520 -5.699024 0.050738 -0.175524 -17.607931 0.000007 -0.000002 -0.000002 0.000000 -0.000001 -0.000000 -115.745711 -24.007782 -2.011329 72.174206 -14.670299 -1.230732 14.820993 7.185948 -30.955237 -0.000002 0.000002 -0.000001 0.000003 -0.000003 -0.000000 
-1.157345 31.444412 18.379736 -4.287489 -17.212746 25.371426 25.625179 -12.532212 4.536329 14.043104 -10.074973 1.970103 13.958445 -10.082957 3.145273 0.587530 8.121464 -6.462129 -19.400886 16.217239 -4.963127 0.000001 0.000000 -0.000000 1.805348 -7.609956 -1.541176 -63.598924 -1.311056 -20.683082 0.000004 -51.774442 0.000001 28.728073 -8.647274 4.963520 -1.540034 3.690183 6.142353 3.939057 7.948686 0.746811 -0.579465 1.575004 2.538717 0.000001 -0.000000 -0.000001 0.000000 -0.000000 0.000008 0.000004 -0.000007 -0.000032 -0.000000 -0.000001 -0.000021 -0.000001 -0.000001 -0.000001 0.000003 -0.001934 0.015991 0.000001 0.001928 -0.016014 -0.000001 0.000006 -0.000023 0.000001 -0.000001 -0.000000 0.000000 -0.000000 0.000008 0.000003 -0.000007 -0.000032 0.000004 -0.000004 -0.000018 0.000002 -0.000001 -0.000000 -0.018087 4.054242 0.511076 -0.018089 -4.054267 -0.511098 -0.000001 -0.000002 -0.000020 0.000001 0.000003 -0.000000 5.071446 12.153693 -3.390615 -27.023896 1.872997 50.065659 0.000025 58.022129 -0.000032 25.554451 -29.475620 35.667381 -14.029575 -11.722649 -16.000739 30.228317 -22.097214 -22.512553 12.289343 -3.973587 -15.690305 -0.000002 0.000000 -0.000001 1.080521 3.727802 -32.318976 0.000000 -0.000002 0.000003 -0.000000 -0.000001 -0.000001 0.000000 -0.000000 -0.000001 1.080520 3.727802 -32.318973 0.000000 -0.000003 0.000001 -0.000000 -0.000001 -0.000007 -0.000000 0.000000 -0.000000 1.080521 3.727801 -32.318976 -0.000002 -0.000002 0.000005 -0.000000 -0.000000 -0.000000 0.000000 -0.000000 -0.000000 1.080521 3.727802 -32.318973 -0.000000 -0.000002 0.000000 -0.000001 -0.000000 -0.000001 -0.000000 0.000000 -0.000001 -87.799807 1.628707 25.397976 101.431328 -3.381074 -3.808604 -1.847091 0.048835 -17.689686 -0.000003 -0.000000 0.000000 -0.000000 -0.000000 -0.000000 -118.891354 -23.977285 -3.236232 78.952609 -14.824850 -1.912222 10.174429 5.936295 -29.627670 0.000007 -0.000007 -0.000006 0.000000 -0.000001 -0.000001 
